<svg width="16" height="16" viewBox="0 0 16 16" fill="none" xmlns="http://www.w3.org/2000/svg">
<path fill-rule="evenodd" clip-rule="evenodd" d="M3.31697 4.36961C3.01574 4.76924 2.76327 5.20781 2.56823 5.67626L3.39951 7.0943C3.72694 7.65283 3.72694 8.34718 3.39951 8.9057L2.56823 10.3237C2.76328 10.7922 3.01574 11.2308 3.31697 11.6304L4.94683 11.6124C5.58948 11.6053 6.18488 11.9524 6.50011 12.5181L7.29982 13.953C7.54433 13.984 7.79384 14 8.04748 14C8.30108 14 8.55054 13.984 8.79501 13.9531L9.59474 12.5181C9.90996 11.9524 10.5054 11.6053 11.148 11.6124L12.778 11.6304C13.0792 11.2308 13.3317 10.7923 13.5266 10.3239L12.6953 8.9057C12.3679 8.34718 12.3679 7.65283 12.6953 7.0943L13.5266 5.67613C13.3317 5.20773 13.0792 4.76921 12.778 4.36961L11.148 4.38764C10.5054 4.39475 9.90996 4.04758 9.59474 3.48194L8.79501 2.04693C8.55054 2.01599 8.30108 2 8.04748 2C7.79384 2 7.54434 2.016 7.29982 2.04695L6.50011 3.48194C6.18488 4.04758 5.58948 4.39475 4.94683 4.38764L3.31697 4.36961ZM4.95767 3.3877C5.23884 3.39081 5.49933 3.23892 5.63724 2.99146L6.49698 1.44875C6.60686 1.25159 6.79594 1.1101 7.01751 1.07676C7.35357 1.0262 7.6975 1 8.04748 1C8.39742 1 8.74131 1.02619 9.07731 1.07674C9.29888 1.11007 9.48798 1.25157 9.59785 1.44873L10.4576 2.99146C10.5955 3.23892 10.856 3.39081 11.1372 3.3877L12.8891 3.36832C13.1127 3.36585 13.3281 3.46012 13.4676 3.63661C13.8952 4.17766 14.245 4.78416 14.5 5.43884C14.5819 5.6491 14.555 5.88489 14.4411 6.07931L13.5473 7.60376C13.4041 7.84811 13.4041 8.15189 13.5473 8.39625L14.4411 9.92069C14.555 10.1151 14.5819 10.3509 14.5 10.5612C14.245 11.2158 13.8952 11.8223 13.4676 12.3634C13.3281 12.5399 13.1127 12.6342 12.8891 12.6317L11.1372 12.6123C10.856 12.6092 10.5955 12.7611 10.4576 13.0085L9.59785 14.5513C9.48798 14.7484 9.29888 14.8899 9.07731 14.9233C8.74131 14.9738 8.39742 15 8.04748 15C7.6975 15 7.35357 14.9738 7.01751 14.9232C6.79594 14.8899 6.60686 14.7484 6.49698 14.5512L5.63724 13.0085C5.49933 12.7611 5.23884 12.6092 4.95767 12.6123L3.20592 12.6317C2.98234 12.6342 2.76684 12.5399 2.62737 12.3634C2.19974 11.8223 1.84989 11.2158 1.59491 10.561C1.51303 10.3508 1.53992 10.115 1.65389 9.92057L2.54748 8.39625C2.69074 8.15189 2.69074 7.84811 2.54748 7.60376L1.65389 6.07944C1.53992 5.88502 1.51303 5.64924 1.59491 5.43898C1.84989 4.78425 2.19974 4.1777 2.62736 3.63661C2.76684 3.46012 2.98234 3.36585 3.20592 3.36832L4.95767 3.3877Z" fill="#548AF7"/>
<circle cx="8" cy="8" r="2.5" stroke="#548AF7"/>
</svg>
