<svg width="24" height="24" viewBox="0 0 24 24" fill="none" xmlns="http://www.w3.org/2000/svg">
<path d="M4.5 2C5.88071 2 7 3.11929 7 4.5C7 5.88071 5.88071 7 4.5 7C3.11929 7 2 5.88071 2 4.5C2 3.11929 3.11929 2 4.5 2Z" stroke="#32B846" stroke-width="2"/>
<path d="M12 9.5C13.3807 9.5 14.5 10.6193 14.5 12C14.5 13.3807 13.3807 14.5 12 14.5C10.6193 14.5 9.5 13.3807 9.5 12C9.5 10.6193 10.6193 9.5 12 9.5Z" stroke="#DE9828" stroke-width="2"/>
<path d="M19.5 17C20.8807 17 22 18.1193 22 19.5C22 20.8807 20.8807 22 19.5 22C18.1193 22 17 20.8807 17 19.5C17 18.1193 18.1193 17 19.5 17Z" stroke="#A571E6" stroke-width="2"/>
<path d="M4.5 8V22" stroke="#32B846" stroke-width="2" stroke-linecap="round"/>
</svg>
