<svg width="24" height="24" viewBox="0 0 24 24" fill="none" xmlns="http://www.w3.org/2000/svg">
<path d="M12 2C13.3807 2 14.5 3.11929 14.5 4.5C14.5 5.88071 13.3807 7 12 7C10.6193 7 9.5 5.88071 9.5 4.5C9.5 3.11929 10.6193 2 12 2Z" stroke="#32B846" stroke-width="2"/>
<path d="M12 8V22" stroke="#32B846" stroke-width="2" stroke-linecap="round"/>
<path d="M19.5 15C20.8807 15 22 16.1193 22 17.5C22 18.8807 20.8807 20 19.5 20C18.1193 20 17 18.8807 17 17.5C17 16.1193 18.1193 15 19.5 15Z" stroke="#A571E6" stroke-width="2"/>
<path d="M4.5 15C5.88071 15 7 16.1193 7 17.5C7 18.8807 5.88071 20 4.5 20C3.11929 20 2 18.8807 2 17.5C2 16.1193 3.11929 15 4.5 15Z" stroke="#DE9828" stroke-width="2"/>
</svg>
